<svg id="Layer_1" data-name="Layer 1" xmlns="http://www.w3.org/2000/svg" xmlns:xlink="http://www.w3.org/1999/xlink" viewBox="0 0 2400 2400"><defs><style>.cls-1{fill:#212a45;}.cls-2{fill:#ccccf5;}.cls-3,.cls-43{fill:#fff;}.cls-4{fill:#303956;}.cls-5{fill:url(#linear-gradient);}.cls-6{fill:url(#linear-gradient-2);}.cls-7{fill:#a1a1a1;}.cls-8{fill:#fafaff;}.cls-9{fill:url(#linear-gradient-3);}.cls-10{fill:url(#linear-gradient-4);}.cls-11{fill:url(#linear-gradient-5);}.cls-12{fill:url(#linear-gradient-6);}.cls-13{fill:url(#linear-gradient-7);}.cls-14{fill:url(#linear-gradient-8);}.cls-15{fill:url(#linear-gradient-9);}.cls-16{fill:url(#linear-gradient-10);}.cls-17{fill:url(#linear-gradient-11);}.cls-18{fill:url(#linear-gradient-12);}.cls-19{fill:url(#linear-gradient-13);}.cls-20{fill:url(#linear-gradient-14);}.cls-21{fill:url(#linear-gradient-15);}.cls-22{fill:url(#linear-gradient-16);}.cls-23{fill:url(#linear-gradient-17);}.cls-24{fill:url(#linear-gradient-18);}.cls-25{fill:url(#linear-gradient-19);}.cls-26{fill:url(#linear-gradient-20);}.cls-27{fill:url(#linear-gradient-21);}.cls-28{fill:url(#linear-gradient-22);}.cls-29{fill:#e3581c;}.cls-30{fill:#f19700;}.cls-31{fill:#f1c900;}.cls-32{fill:#ea6629;}.cls-33{fill:url(#linear-gradient-23);}.cls-34{fill:#2f4755;}.cls-35{fill:url(#linear-gradient-24);}.cls-36{fill:url(#linear-gradient-25);}.cls-37{fill:url(#linear-gradient-26);}.cls-38{fill:url(#linear-gradient-27);}.cls-39{fill:url(#linear-gradient-28);}.cls-40{fill:url(#linear-gradient-29);}.cls-41{fill:url(#linear-gradient-30);}.cls-42{fill:url(#linear-gradient-31);}.cls-43{font-size:435.62px;font-family:SpaceAge, Space Age;}</style><linearGradient id="linear-gradient" x1="11849.02" y1="-2008.08" x2="11684.62" y2="-11645.71" gradientTransform="matrix(0.07, 0, 0, -0.07, -45.48, 127.48)" gradientUnits="userSpaceOnUse"><stop offset="0" stop-color="#ffa41b"/><stop offset="1" stop-color="#e21574"/></linearGradient><linearGradient id="linear-gradient-2" x1="8729.09" y1="-2940.4" x2="12203.86" y2="-11148.71" gradientTransform="matrix(0.07, 0, 0, -0.07, -45.48, 127.48)" gradientUnits="userSpaceOnUse"><stop offset="0" stop-color="#fdc25c"/><stop offset="1" stop-color="#fd266a"/></linearGradient><linearGradient id="linear-gradient-3" x1="7064.88" y1="-6206.14" x2="12266.93" y2="-14320.86" xlink:href="#linear-gradient"/><linearGradient id="linear-gradient-4" x1="4984.39" y1="-8710.18" x2="12424.44" y2="-13618.89" xlink:href="#linear-gradient-2"/><linearGradient id="linear-gradient-5" x1="3929.88" y1="-11753.01" x2="12756.04" y2="-15627.09" xlink:href="#linear-gradient"/><linearGradient id="linear-gradient-6" x1="3584.85" y1="-14990.65" x2="12498.29" y2="-14955.81" xlink:href="#linear-gradient-2"/><linearGradient id="linear-gradient-7" x1="4336.57" y1="-19083.42" x2="13830.79" y2="-17419.25" xlink:href="#linear-gradient"/><linearGradient id="linear-gradient-8" x1="5842.55" y1="-21969.14" x2="13243.94" y2="-17002.31" xlink:href="#linear-gradient-2"/><linearGradient id="linear-gradient-9" x1="22747.52" y1="-2008.08" x2="22911.92" y2="-11645.71" xlink:href="#linear-gradient"/><linearGradient id="linear-gradient-10" x1="25867.52" y1="-2940.43" x2="22392.59" y2="-11148.75" xlink:href="#linear-gradient-2"/><linearGradient id="linear-gradient-11" x1="27531.66" y1="-6206.14" x2="22329.61" y2="-14320.86" xlink:href="#linear-gradient"/><linearGradient id="linear-gradient-12" x1="29612.16" y1="-8710.17" x2="22172.1" y2="-13618.89" xlink:href="#linear-gradient-2"/><linearGradient id="linear-gradient-13" x1="30666.65" y1="-11753.05" x2="21840.34" y2="-15627.12" xlink:href="#linear-gradient"/><linearGradient id="linear-gradient-14" x1="31011.58" y1="-14990.65" x2="22098.25" y2="-14955.81" xlink:href="#linear-gradient-2"/><linearGradient id="linear-gradient-15" x1="30259.96" y1="-19083.41" x2="20765.58" y2="-17419.23" xlink:href="#linear-gradient"/><linearGradient id="linear-gradient-16" x1="28753.99" y1="-21969.1" x2="21352.47" y2="-17002.26" xlink:href="#linear-gradient-2"/><linearGradient id="linear-gradient-17" x1="17698.34" y1="-14898.21" x2="16825.88" y2="-6264.9" gradientTransform="matrix(0.07, 0, 0, -0.07, -45.48, 127.48)" gradientUnits="userSpaceOnUse"><stop offset="0" stop-color="#fd266a"/><stop offset="1" stop-color="#ff9c14"/></linearGradient><linearGradient id="linear-gradient-18" x1="13765.95" y1="-17483.63" x2="17230.77" y2="-4225.92" gradientTransform="matrix(0.07, 0, 0, -0.07, -45.48, 127.48)" gradientUnits="userSpaceOnUse"><stop offset="0" stop-color="#e21574"/><stop offset="1" stop-color="#ff9c14"/></linearGradient><linearGradient id="linear-gradient-19" x1="15648.84" y1="-7390.74" x2="17697.22" y2="-11066.38" gradientTransform="matrix(0.07, 0, 0, -0.07, -45.48, 127.48)" gradientUnits="userSpaceOnUse"><stop offset="0" stop-color="#ccc"/><stop offset="1" stop-color="#fefefe"/></linearGradient><linearGradient id="linear-gradient-20" x1="17638.09" y1="-10603.47" x2="18810.8" y2="-17825.96" gradientTransform="matrix(0.07, 0, 0, -0.07, -45.48, 127.48)" gradientUnits="userSpaceOnUse"><stop offset="0" stop-color="#fefefe"/><stop offset="1" stop-color="#eee4e3"/></linearGradient><linearGradient id="linear-gradient-21" x1="25454.88" y1="-17506.76" x2="15889.05" y2="-18692.96" xlink:href="#linear-gradient"/><linearGradient id="linear-gradient-22" x1="24095.15" y1="-14548.41" x2="16453.92" y2="-19137.92" xlink:href="#linear-gradient-2"/><linearGradient id="linear-gradient-23" x1="17644.26" y1="-8603.26" x2="17570.41" y2="-5936.73" gradientTransform="matrix(0.07, 0, 0, -0.07, -45.48, 127.48)" gradientUnits="userSpaceOnUse"><stop offset="0" stop-color="#fefefe"/><stop offset="1" stop-color="#fbf1f2"/></linearGradient><linearGradient id="linear-gradient-24" x1="18158.32" y1="-8460.34" x2="17067.98" y2="-14720.3" gradientTransform="matrix(0.07, 0, 0, -0.07, -45.48, 127.48)" gradientUnits="userSpaceOnUse"><stop offset="0" stop-color="#ccccf5"/><stop offset="1" stop-color="#fafaff"/></linearGradient><linearGradient id="linear-gradient-25" x1="18322.26" y1="-10531.89" x2="18678.05" y2="-20897.46" gradientTransform="matrix(0.07, 0, 0, -0.07, -45.48, 127.48)" gradientUnits="userSpaceOnUse"><stop offset="0" stop-color="#fafaff"/><stop offset="1" stop-color="#ccccf5"/></linearGradient><linearGradient id="linear-gradient-26" x1="17536.61" y1="-1859.66" x2="17613.2" y2="-8747.07" gradientTransform="matrix(0.07, 0, 0, -0.07, -45.48, 127.48)" gradientUnits="userSpaceOnUse"><stop offset="0" stop-color="#f79d22"/><stop offset="1" stop-color="#fd266a"/></linearGradient><linearGradient id="linear-gradient-27" x1="14151.66" y1="-1689.15" x2="16562.11" y2="-3991.99" gradientTransform="matrix(0.07, 0, 0, -0.07, -45.48, 127.48)" gradientUnits="userSpaceOnUse"><stop offset="0" stop-color="#fecb55"/><stop offset="1" stop-color="#f9862f"/></linearGradient><linearGradient id="linear-gradient-28" x1="17580.37" y1="-6225.65" x2="17662.1" y2="-9797.26" gradientTransform="matrix(0.07, 0, 0, -0.07, -45.48, 127.48)" gradientUnits="userSpaceOnUse"><stop offset="0" stop-color="#fafaff"/><stop offset="1" stop-color="#d6d6f7"/></linearGradient><linearGradient id="linear-gradient-29" x1="19312.69" y1="-1892.69" x2="21494.18" y2="-4020.7" xlink:href="#linear-gradient-27"/><linearGradient id="linear-gradient-30" x1="15982.45" y1="-6833.03" x2="15572.87" y2="-5261.5" gradientTransform="matrix(0.07, 0, 0, -0.07, -45.48, 127.48)" gradientUnits="userSpaceOnUse"><stop offset="0" stop-color="#e32225"/><stop offset="1" stop-color="#fa4447"/></linearGradient><linearGradient id="linear-gradient-31" x1="18986.71" y1="-6824.63" x2="19373.65" y2="-5240.74" xlink:href="#linear-gradient-30"/></defs><title>Artboard 2</title><path class="cls-1" d="M1153.58,278.92h0c-1.79-.11-159.76-10.83-449.79,60.56C580.45,369.86,468.39,417,380.36,461.14c-78.1,39.21-137.64,76.3-169,97.09,17.21,176.4,50.84,342.53,99.66,498.49,51.28,163.56,119,315.73,201.88,456.61,84.91,144.23,185.68,277.07,300.86,398.73,115.08,121.44,244.34,231.82,386.22,331.14,142-99.32,271.26-209.7,386.33-331.14,115.19-121.66,216-254.5,300.87-398.73,82.9-140.88,150.6-293,201.88-456.61,48.71-156,82.45-322.09,99.65-498.49-31.39-20.79-90.94-57.88-169-97.09-88-44.13-200.09-91.28-323.43-121.66-290-71.39-448-60.67-449.79-60.56l-1.34.11h-4.36l-1.56-.11-39.22-3-39.1,3-1.56.11h-4.36ZM678.65,237.25c142.78-35.19,256.63-51.28,337.62-58.54,78.21-7,125.91-5.7,139.54-5.14l40.22-3,1.57-.11h4.8l1.56.11,40.11,3c13.74-.56,61.45-1.9,139.65,5.14,81,7.26,194.85,23.35,337.63,58.54,306.33,75.41,548.1,248.47,553.13,252h0c8.26,5.81,16.42,11.73,24.69,17.66l-2.57,29.71C2280,729.16,2244.54,910.15,2192,1080c-53.85,174.06-125.8,336.17-214.28,486.55-90.72,154.28-198.64,296-322,425.21-126.47,132.5-269.14,252-426.11,358.85l-29.72,20.22-29.6-20.22c-157-106.81-299.64-226.35-426.11-358.85-123.34-129.26-231.26-270.93-322-425.21C333.77,1416.13,261.82,1254,208,1080c-52.51-169.81-87.92-350.8-104.57-543.3L100.83,507c8.27-5.93,16.42-11.85,24.69-17.66h0C130.55,485.72,372.31,312.66,678.65,237.25Z"/><path class="cls-2" d="M1153,227.64s-166.46-11.62-465.77,62S152,533.42,152,533.42c67.93,785.51,451.46,1371.6,1044,1775,592.57-403.43,976.11-989.52,1044-1775,0,0-235.85-170-535.26-243.77s-465.65-62-465.65-62L1196,224.4Z"/><path class="cls-3" d="M1084.42,227.87c-45.91,1.9-114.51,7.37-203.66,21.89L174,716c6,39.21,13.07,77.75,20.78,116ZM342.48,1303.63a2232.83,2232.83,0,0,0,120,235.73L2073.83,433.43c-60.56-31.95-134.74-66.92-217.64-97.31ZM540.79,1663c11.28,16.54,22.68,33,34.41,49.27L2239.62,537.56c.22-1.34.33-2.68.45-4.14,0,0-17.77-12.73-49.61-32.73Zm316.5,372.59q59,56.31,122.34,109.38l1092.3-894.66a2324.47,2324.47,0,0,0,89.48-266.12Z"/><path class="cls-1" d="M307,612.3C380.13,1247.88,683,1758.33,1196,2132.49c513-374.16,815.9-884.61,889.08-1520.19-26.7-16.31-54.3-31.62-80.33-45.58-107.25-57.54-223.11-105.36-341.42-134.52-103.23-25.36-210.48-45.58-316.62-54.07-30.61-2.46-69.71-5.25-100-3.13l-9,.67L1196,372.43l-41.67,3.24-9-.67c-30.27-2.12-69.38.67-100,3.13-106.13,8.49-213.39,28.71-316.62,54.07-118.2,29.16-234.16,77-341.42,134.52C361.25,580.68,333.66,596,307,612.3Z"/><path class="cls-4" d="M648.52,1148.23c.35.11,124.16,33.29,150.17-151.09,13.87-97.92-53.52-190.4-122.08-284.5-116.41-159.76-235.71-323.56-54.44-554l.69-.81c2-2.42,4.16-5,6.47-7.63v-.11l.7-.7h0l.34-.46h.12l.23-.34.12-.12c5.89-6.7,12.71-14.1,20.23-21.73,10.75-10.87,23.93-23.12,39.65-36.53h0l.11-.12.58-.46.23-.23.47-.35.34-.23.35-.35.46-.34.23-.24.58-.46.12-.11.69-.58.12-.23.23-.12.11-.11.23-.12.12-.11.11-.12h0l.24-.23.11-.12h0a298.76,298.76,0,0,1,27.51-20.23c58.15-27.63,61.27-20.23,123-36.18-29.13,200.8-6.47,230.85,85.2,419.28,10.41,21.28,20,41,29.25,61.5,110.86,178.72,191,369.58-8.9,603.67-153.52,179.88-326.92,108.09-327.38,108Zm246-599.05c-.92-1.38-2.31-3.35-4.39-6.35H890C837.07,473.58,774.64,432.54,723.66,399c-43-28.21-79.41-52.14-102-81.5-41,132.13,38.85,242,117.22,349.58,78,107,154.68,212.24,136.41,340.9-5.55,39.54-14.79,72.14-26.47,99a325,325,0,0,0,44.51-43.47C1058.33,870.09,990.47,704.9,894.52,549.18ZM687.83,201l-3.12,4.63c-21,58.38,16.41,86,73.63,123.69-25.31-48.21-44.85-96.87-53.4-146.93-6.36,6.47-11.56,12-16,16.88Z"/><path class="cls-5" d="M639,1185.68h0s165.89,44.39,198-183.11c39.53-280.1-458.59-471.65-184.5-820.07,12.72-15.38,34.22-38.5,67.16-66.13,7.06-5.89,13.88-11.09,20.58-15.72-32.83,312.82,523.91,588,182.54,987.93C787.36,1247.18,639,1185.68,639,1185.68Z"/><path class="cls-6" d="M684.36,1188.69c51.56-4,131.44-35.61,152.71-186.12,39.53-280.1-458.59-471.65-184.5-820.07,12.72-15.38,34.22-38.5,67.16-66.13,7.06-5.89,13.88-11.09,20.58-15.72a278,278,0,0,0,.23,57.11C579.86,451.5,939.15,709.64,930.24,941,921.8,1159.56,764.12,1188.23,684.36,1188.69Z"/><path class="cls-7" d="M650.26,187.58c2.89-4.27,5.55-8.32,8.21-12,13.17-15,32.94-35.49,61.26-59.19q10.59-8.84,20.47-15.6c-15,143.8,94.67,279.75,184.26,423.56C783.55,335.21,588.06,345.26,650.26,187.58ZM1014.4,705.94c.46,1.15.81,2.43,1.27,3.7C1015.21,708.37,1014.86,707.09,1014.4,705.94Z"/><path class="cls-2" d="M653.38,182.84c1.73-2.54,3.47-5,5.09-7.28,13.17-15,32.94-35.49,61.26-59.19,33.3-28,63.12-40,83-45.2-53.53,129,72.48,341.84,124.38,457.44l-6.47-9.25c-140.57-183.92-332-175.48-270.39-331.78C651.18,186.08,652.34,184.46,653.38,182.84Zm361,523.1c.46,1.15.81,2.43,1.27,3.7C1015.21,708.37,1014.86,707.09,1014.4,705.94Z"/><path class="cls-8" d="M653.38,182.84c1.73-2.54,3.47-5,5.09-7.28,13.17-15,32.94-35.49,61.26-59.19,33.3-28,63.12-40,83-45.2-82.2,91.56-108.09,179.76-103,264.84-51.45-37.8-78.5-74.9-49.48-148.43C651.18,186.08,652.34,184.46,653.38,182.84Z"/><path class="cls-4" d="M816.15,1391.92c.34-.12,121.72-41,41.27-209-42.66-89.13-150.06-128.9-259.18-169.24C412.81,945.12,222.65,874.83,246,582.59l.12-1c.34-3.12.69-6.36,1.15-9.82v-.12l.12-1h0l.11-.58h0l.12-.46v-.23c1.16-8.79,2.66-18.73,4.74-29.25,3-15,7.05-32.48,12.83-52.37h0v-.11l.23-.81v-.12l.23-.69.12-.35.11-.58.12-.46.12-.34.23-.7.11-.11.23-.93v-.23l.12-.12v-.23l.11-.23v-.23H267v-.35l.12-.23h0a277.74,277.74,0,0,1,11.67-32.13c33.06-55.15,39.77-50.64,82.31-98.27,87.05,183.35,122.54,195.72,303.22,302,20.46,11.91,39.42,23.13,58.38,35,191.32,87.28,363.8,201.84,327,507.38-28.21,234.78-212.25,271.2-212.71,271.31ZM689,756.92c-1.5-.58-3.69-1.5-7.16-2.89v.11c-82.54-28.43-157.22-28-218.26-27.62-51.32.34-95,.57-129.93-11.45,38.95,132.83,166.35,180,291.2,226.12,124.27,45.89,246.34,91.09,302.41,208.31,17.34,36.07,27.63,68.2,32.83,97A338.63,338.63,0,0,0,973,1185.68C1003.3,933.33,855.22,833.33,689,756.92ZM324,581.55v5.55c14.91,60.23,61.39,62.54,129.82,62.19-47.74-26.12-91-55.72-125.77-92.82-1.74,9-3,16.53-3.93,22.89Z"/><path class="cls-9" d="M829,1428.33h0s162.65-54.91,63.35-262.07C770.14,911,249.24,1027.54,284.5,585.71c2.08-19.88,7.16-51.09,19.3-92.36A257.28,257.28,0,0,1,312.24,469c145.89,278.48,761.81,199.18,699.16,721.35C986.54,1397.35,829,1428.33,829,1428.33Z"/><path class="cls-10" d="M868.4,1405.67c40.69-31.9,89.7-102.31,23.93-239.41C770.14,911,249.24,1027.54,284.5,585.71c2.08-19.88,7.16-51.09,19.3-92.36A257.28,257.28,0,0,1,312.24,469,268.64,268.64,0,0,0,344,516.24c29,333.62,471.08,349.46,591.76,547C1049.89,1250,934.41,1361.17,868.4,1405.67Z"/><path class="cls-7" d="M285.42,591.15c0-5.21,0-9.95.12-14.57,2.66-19.77,7.86-47.86,18.26-83.23A257.28,257.28,0,0,1,312.24,469c67.05,128.2,233.75,180.56,388,250.62C478.13,640.28,321,756.92,285.42,591.15ZM875.68,821c1,.81,2.08,1.62,3,2.43C877.76,822.58,876.72,821.77,875.68,821Z"/><path class="cls-2" d="M285.42,585.48c0-3.12.12-6,.12-8.9,2.66-19.77,7.86-47.86,18.26-83.23,12.26-41.73,30.29-68.21,44.05-83.58,26.93,137.1,249.69,244.38,357,311.89,0,0-3.93-1.5-10.4-4-219.07-75.25-373.74,37.81-409-126.46ZM875.68,821c1,.81,2.08,1.62,3,2.43C877.76,822.58,876.72,821.77,875.68,821Z"/><path class="cls-8" d="M285.42,585.48c0-3.12.12-6,.12-8.9,2.66-19.77,7.86-47.86,18.26-83.23,12.26-41.73,30.29-68.21,44.05-83.58-17.69,121.84,9.59,209.58,60.92,277.56-63.7-3-106.82-18.85-123.35-96.18Z"/><path class="cls-4" d="M984.23,1458.85c.23-.23,78.61-101.62-81.38-196.87-85-50.52-196.29-24.16-309.58,2.77-192.36,45.55-389.58,92.37-532-163.8l-.46-.93c-1.5-2.77-3-5.78-4.51-8.9l-.12-.11-.46-.93h0l-.23-.46h0l-.23-.46V1089c-3.93-8.09-8.09-17.11-12.25-27-5.9-14.1-12.14-31-18.38-50.63v-.12h0l-.35-.81v-.23l-.23-.69-.12-.35-.11-.46-.24-.46-.11-.35-.23-.7V1007l-.23-.81-.12-.23v-.23l-.11-.11v-.23l-.12-.24V1005l-.12-.12v-.11l-.11-.23h0a333.87,333.87,0,0,1-8.09-33.18c-3-64.28,5.08-64.28,14.22-127.39,174,104.27,210.39,95,419.63,83.23,23.7-1.27,45.54-2.54,68-3.12,207.74-33.3,414.66-33.41,553.38,241.26,106.59,211.08-26.47,343.33-26.82,343.68ZM526.68,1000.61c-1.62.34-4,.8-7.63,1.61v.12c-84.39,22.08-146.23,63.81-196.87,97.91-42.65,28.67-78.84,53.06-114.56,62.43,106,89,238.14,57.68,367.61,26.93,128.9-30.63,255.6-60.69,367.27,5.9,34.33,20.46,60.8,41.5,81,62.54a332.81,332.81,0,0,0-23-57.8C886,973.44,707.36,972.28,526.68,1000.61Zm-401,56.18,3,4.62c45.77,42,85.77,18.15,142.53-20.11C217,1046,164.62,1045.23,115,1033.78c3.58,8.33,6.7,15.38,9.47,21.16Z"/><path class="cls-11" d="M1015.1,1482.08h0s105-135.83-92.49-253.28c-243.1-144.85-612.1,240.8-827.7-146.7-9.25-17.68-22.31-46.47-35-87.39a253.07,253.07,0,0,1-6.47-25.09C329.23,1120.71,798,713.45,1035.09,1182.79,1129.08,1369,1015.1,1482.08,1015.1,1482.08Z"/><path class="cls-12" d="M1035.33,1441.39c16.18-49.13,17.91-134.9-112.6-212.59C679.51,1084,310.51,1469.6,94.91,1082.1c-9.25-17.68-22.31-46.47-35-87.39a253.07,253.07,0,0,1-6.47-25.09,261.32,261.32,0,0,0,52.71,21.74C315,1253.08,691.87,1021.3,901.81,1119,1100.18,1211.23,1065.73,1367.75,1035.33,1441.39Z"/><path class="cls-7" d="M98.73,1086.27c-2.78-4.28-5.44-8.33-7.87-12.26-8.78-17.92-20-44.16-31-79.3-2.66-8.79-4.85-17.11-6.47-25.09,126.93,69.6,294.67,20.81,461.94-6.24C286.46,1020.37,220.22,1204.53,98.73,1086.27ZM717.54,950.55l3.81.35Z"/><path class="cls-2" d="M95.6,1081.53c-1.61-2.66-3.23-5.09-4.74-7.52-8.78-17.92-20-44.16-31-79.3C46.94,953.09,47.4,921,50.29,900.61c98.37,99.19,343.22,65.08,470,62,0,0-4.16.93-11,2.31-224,58.73-290.16,238.61-410.61,121.39C97.8,1084.76,96.76,1083.14,95.6,1081.53Zm621.94-131,3.81.35Z"/><path class="cls-8" d="M95.6,1081.53c-1.61-2.66-3.23-5.09-4.74-7.52-8.78-17.92-20-44.16-31-79.3C46.94,953.09,47.4,921,50.29,900.61c52.71,111.21,124,169.24,204.5,197.33-54.68,32.83-99.42,43.47-156.06-11.67C97.8,1084.76,96.76,1083.14,95.6,1081.53Z"/><path class="cls-4" d="M1157.17,1491.79c.11-.46,9.25-128.2-176.76-119-98.83,5-176.86,88.67-256.28,173.86-134.79,144.51-273,292.71-533.62,158.38l-.92-.58q-4.17-2.25-8.67-4.85l-.12-.12-.81-.46h0l-.46-.35h-.12l-.34-.23-.23-.12c-7.63-4.5-16.19-9.71-25.09-15.72-12.71-8.55-27.28-19.07-43.35-32h-.11l-.7-.58-.11-.11-.58-.35-.23-.35-.47-.23-.34-.34-.35-.24-.58-.46-.11-.11-.7-.58-.11-.12-.23-.11-.12-.12-.23-.23-.12-.12h-.11v-.11l-.23-.12-.12-.11h0a315.14,315.14,0,0,1-25.2-23.12c-38-51.91-31.33-56.42-58.72-114,202.64-9.47,227.85-37.33,395.47-163.11,19-14.22,36.53-27.4,54.91-40.34C625.75,1163,798,1048.23,1065.73,1200c205.65,116.75,168.08,300.56,168,301ZM522.4,1363.71c-1.15,1.15-2.89,2.89-5.43,5.55h.12c-58,65.2-86.47,134.21-109.83,190.62-19.53,47.52-36.18,87.86-60.69,115.49,137.57,15.26,230.28-83.93,321-181.26,90.4-96.88,179.06-192,309-198.61,39.88-2,73.52.93,102.08,7.29a321.24,321.24,0,0,0-51.1-35.38C806.55,1142,657.08,1239.9,522.4,1363.71ZM219.64,1632.6l5.09,2.19c61.38,9.48,81.38-32.48,107.63-95.71-42.55,33.87-86.59,62.3-134.22,80.22,7.52,5,14.11,9.13,19.54,12.37Z"/><path class="cls-13" d="M1195.78,1493.88h0s12.14-171.21-217.33-159.65c-282.53,14.1-376.28,539.63-770.25,336.51-17.57-9.71-44.39-26.35-77.68-53.4-7.17-5.9-13.53-11.68-19.31-17.34,313.28-26.94,478-625.75,935.44-366.23C1228,1336.66,1195.78,1493.88,1195.78,1493.88Z"/><path class="cls-14" d="M1190.11,1448.79c-13.75-49.82-59.76-122.19-211.66-114.56-282.53,14.1-376.28,539.63-770.25,336.51-17.57-9.71-44.39-26.35-77.68-53.4-7.17-5.9-13.53-11.68-19.31-17.34a261.16,261.16,0,0,0,56-11.1c318.94,102.19,504.25-299.52,733.14-334.55C1116.48,1221.29,1174.62,1370.64,1190.11,1448.79Z"/><path class="cls-7" d="M213.63,1672c-4.74-2.08-9.25-3.93-13.41-5.78-17.22-10.06-41-25.67-69.7-48.9-7.06-5.9-13.53-11.56-19.19-17.23,144-12.48,256.75-146,381-261.14C333.4,1513.07,380.21,1703.23,213.63,1672Zm440-455.82c1-.58,2.2-1.27,3.35-1.85C655.81,1214.93,654.65,1215.62,653.61,1216.2Z"/><path class="cls-2" d="M208.32,1669.7c-2.78-1.15-5.44-2.31-8.1-3.46-17.22-10.06-41-25.67-69.7-48.9-33.76-27.52-51.22-54.45-60.12-73.06,136.87,28.09,322-136,425.65-208.78,0,0-3,3-7.86,8.09-154,172.94-109.36,359.29-274.56,328.43C211.9,1671.32,210.16,1670.51,208.32,1669.7Zm445.29-453.5c1-.58,2.2-1.27,3.35-1.85C655.81,1214.93,654.65,1215.62,653.61,1216.2Z"/><path class="cls-8" d="M208.32,1669.7c-2.78-1.15-5.44-2.31-8.1-3.46-17.22-10.06-41-25.67-69.7-48.9-33.76-27.52-51.22-54.45-60.12-73.06,105.55,63.35,197.1,72.13,279.64,51-27.4,57.68-58.72,91.32-136.41,76.76C211.9,1671.32,210.16,1670.51,208.32,1669.7Z"/><path class="cls-4" d="M1751.47,1148.23c-.34.11-124.15,33.29-150.16-151.09-13.87-97.92,53.52-190.4,122.07-284.5,116.41-159.76,235.71-323.56,54.45-554l-.69-.81c-2.08-2.42-4.16-5-6.48-7.63v-.11l-.69-.7h0l-.35-.46h-.11l-.23-.34-.12-.12c-5.89-6.7-12.72-14.1-20.23-21.73-10.87-10.87-23.93-23.12-39.65-36.53h0l-.12-.12-.57-.46-.24-.23-.46-.35-.34-.23-.35-.35-.46-.34-.23-.24-.58-.46-.12-.11-.69-.58-.12-.23-.23-.12-.11-.11-.24-.12-.11-.11-.12-.12h0l-.23-.23-.11-.12h0a298.84,298.84,0,0,0-27.52-20.23c-58.14-27.63-61.27-20.23-123-36.18,29.14,200.8,6.48,230.85-85.19,419.28-10.41,21.28-20,41-29.25,61.5-110.86,178.72-191,369.58,8.9,603.67,153.52,179.88,326.8,108.09,327.38,108Zm-246-599.05c.93-1.38,2.32-3.35,4.4-6.35h.11c53-69.25,115.37-110.29,166.35-143.81,42.89-28.21,79.42-52.14,102-81.5,41,132.13-38.84,242-117.22,349.58-78,107-154.67,212.24-136.41,340.9,5.55,39.54,14.8,72.14,26.48,99a325,325,0,0,1-44.51-43.47C1341.67,870.09,1409.53,704.9,1505.47,549.18ZM1712.17,201l3.12,4.63c21,58.38-16.41,86-73.64,123.69,25.32-48.21,44.86-96.87,53.41-146.93,6.36,6.47,11.56,12,15.84,16.88Z"/><path class="cls-15" d="M1761,1185.68h0s-165.88,44.39-198-183.11c-39.54-280.1,458.59-471.65,184.5-820.07-12.72-15.38-34.22-38.5-67.17-66.13-7-5.89-13.87-11.09-20.57-15.72,32.83,312.82-523.91,588-182.54,987.93C1612.64,1247.18,1761,1185.68,1761,1185.68Z"/><path class="cls-16" d="M1715.64,1188.69c-51.56-4-131.44-35.61-152.71-186.12-39.54-280.1,458.59-471.65,184.5-820.07-12.72-15.38-34.22-38.5-67.17-66.13-7-5.89-13.87-11.09-20.57-15.72a278,278,0,0,1-.23,57.11C1820.14,451.5,1460.74,709.64,1469.75,941,1478.19,1159.56,1635.87,1188.23,1715.64,1188.69Z"/><path class="cls-7" d="M1749.74,187.58c-2.89-4.27-5.55-8.32-8.21-12-13.18-15-32.94-35.49-61.27-59.19a250.07,250.07,0,0,0-20.57-15.6c15.14,143.8-94.57,279.75-184.16,423.56C1616.45,335.21,1811.93,345.26,1749.74,187.58ZM1385.6,705.94c-.47,1.15-.81,2.43-1.28,3.7C1384.79,708.37,1385.13,707.09,1385.6,705.94Z"/><path class="cls-2" d="M1746.5,182.84c-1.62-2.54-3.35-5-5-7.28-13.18-15-32.94-35.49-61.27-59.19-33.29-28-63.11-40-83-45.2,53.53,129-72.48,341.84-124.38,457.44,0,0,2.42-3.47,6.35-9.25,140.69-183.92,332.13-175.48,270.51-331.78C1748.82,186.08,1747.66,184.46,1746.5,182.84Zm-360.9,523.1c-.47,1.15-.81,2.43-1.28,3.7C1384.79,708.37,1385.13,707.09,1385.6,705.94Z"/><path class="cls-8" d="M1746.5,182.84c-1.62-2.54-3.35-5-5-7.28-13.18-15-32.94-35.49-61.27-59.19-33.29-28-63.11-40-83-45.2,82.19,91.56,108.09,179.76,103,264.84,51.45-37.8,78.5-74.9,49.48-148.43C1748.82,186.08,1747.66,184.46,1746.5,182.84Z"/><path class="cls-4" d="M1583.85,1391.92c-.34-.12-121.73-41-41.27-209,42.66-89.13,150.05-128.9,259.18-169.24,185.42-68.55,375.59-138.84,352.24-431.08l-.12-1c-.35-3.12-.69-6.36-1.15-9.82v-.12l-.12-1h0l-.12-.58h0l-.11-.46v-.23c-1.16-8.79-2.66-18.73-4.74-29.25-3-15-7.17-32.48-12.83-52.37h0v-.11l-.23-.81v-.12l-.24-.69-.11-.35-.12-.58-.23-.46v-.34l-.23-.7-.11-.11-.24-.93v-.23l-.11-.12v-.23l-.12-.23v-.23H2133v-.35l-.12-.23h0a281.51,281.51,0,0,0-11.67-32.13c-33.07-55.15-39.77-50.64-82.31-98.27-87,183.35-122.54,195.72-303.22,302-20.46,11.91-39.42,23.13-58.38,35-191.32,87.28-363.8,201.84-327,507.38,28.21,234.78,212.25,271.2,212.71,271.31Zm127.16-635c1.51-.58,3.7-1.5,7.17-2.89v.11c82.54-28.43,157.22-28,218.26-27.62,51.32.34,95,.57,129.93-11.45-39,132.83-166.35,180-291.2,226.12-124.27,45.89-246.34,91.09-302.53,208.31-17.22,36.07-27.51,68.2-32.71,97a337.77,337.77,0,0,1-13-60.81C1396.69,933.33,1544.78,833.33,1711,756.92Zm364.84-175.37.12,5.55c-14.92,60.23-61.39,62.54-129.82,62.19,47.74-26.12,91-55.72,125.77-92.82,1.73,9,3,16.53,3.93,22.89Z"/><path class="cls-17" d="M1571,1428.33h0s-162.65-54.91-63.35-262.07C1629.86,911,2150.76,1027.54,2115.5,585.71c-2.08-19.88-7.17-51.09-19.3-92.36-2.55-8.79-5.44-16.88-8.44-24.39C1941.87,747.44,1326,668.14,1388.6,1190.31,1413.46,1397.35,1571,1428.33,1571,1428.33Z"/><path class="cls-18" d="M1531.6,1405.67c-40.69-31.9-89.71-102.31-23.93-239.41C1629.86,911,2150.76,1027.54,2115.5,585.71c-2.08-19.88-7.17-51.09-19.3-92.36-2.55-8.79-5.44-16.88-8.44-24.39A268.64,268.64,0,0,1,2056,516.24c-29,333.62-471.08,349.46-591.76,547C1350.11,1250,1465.48,1361.17,1531.6,1405.67Z"/><path class="cls-7" d="M2114.58,591.15c0-5.21,0-9.95-.12-14.57-2.66-19.77-7.86-47.86-18.26-83.23-2.55-8.79-5.44-16.88-8.44-24.39-67.17,128.2-233.75,180.56-388,250.62C1921.87,640.28,2079,756.92,2114.58,591.15ZM1524.32,821c-1,.81-2.08,1.62-3,2.43C1522.24,822.58,1523.28,821.77,1524.32,821Z"/><path class="cls-2" d="M2114.58,585.48c0-3.12-.12-6-.12-8.9-2.66-19.77-7.86-47.86-18.26-83.23-12.26-41.73-30.41-68.21-44-83.58-26.93,137.1-249.7,244.38-357,311.89,0,0,3.93-1.5,10.4-4,219.06-75.25,373.74,37.81,409-126.46ZM1524.32,821c-1,.81-2.08,1.62-3,2.43C1522.24,822.58,1523.28,821.77,1524.32,821Z"/><path class="cls-8" d="M2114.58,585.48c0-3.12-.12-6-.12-8.9-2.66-19.77-7.86-47.86-18.26-83.23-12.26-41.73-30.41-68.21-44-83.58,17.69,121.84-9.59,209.58-60.92,277.56,63.7-3,106.82-18.85,123.35-96.18Z"/><path class="cls-4" d="M1415.77,1458.85c-.23-.23-78.61-101.62,81.38-196.87,85-50.52,196.29-24.16,309.58,2.77,192.36,45.55,389.58,92.37,532-163.8l.46-.93c1.5-2.77,3-5.78,4.51-8.9l.11-.11.47-.93h0l.23-.46h0l.23-.46V1089c3.93-8.09,8.09-17.11,12.25-27,5.9-14.1,12.14-31,18.38-50.63v-.12h0l.35-.81v-.23l.23-.69.12-.35.11-.46.23-.46.12-.35.11-.7.12-.23.23-.81.12-.23v-.23l.11-.11v-.23l.12-.24v-.23l.11-.11.12-.23h0a333.87,333.87,0,0,0,8.09-33.18c3-64.28-5.09-64.28-14.22-127.39-174,104.27-210.39,95-419.63,83.23-23.7-1.27-45.55-2.54-68.09-3.12-207.62-33.3-414.54-33.41-553.27,241.26-106.58,211.08,26.48,343.33,26.82,343.68Zm457.55-458.24c1.62.34,4,.8,7.63,1.61v.12c84.39,22.08,146.23,63.81,196.87,97.91,42.65,28.67,78.84,53.06,114.56,62.43-106,89-238.14,57.68-367.73,26.93-128.78-30.63-255.48-60.69-367.15,5.9-34.33,20.46-60.81,41.5-81,62.54a333.7,333.7,0,0,1,23-57.8C1514,973.44,1692.63,972.28,1873.32,1000.61Zm401,56.18-3,4.62c-45.78,42-85.77,18.15-142.65-20.11,54.33,4.74,106.7,3.93,156.18-7.52q-5.21,12.49-9.37,21.16Z"/><path class="cls-19" d="M1384.9,1482.08h0s-105-135.83,92.37-253.28c243.22-144.85,612.22,240.8,827.82-146.7,9.13-17.68,22.31-46.47,35-87.39,2.66-8.79,4.86-17.22,6.48-25.09C2070.76,1120.71,1602,713.45,1364.9,1182.79,1270.92,1369,1384.9,1482.08,1384.9,1482.08Z"/><path class="cls-20" d="M1364.67,1441.39c-16.18-49.13-17.92-134.9,112.6-212.59,243.22-144.85,612.22,240.8,827.82-146.7,9.13-17.68,22.31-46.47,35-87.39,2.66-8.79,4.86-17.22,6.48-25.09a261.16,261.16,0,0,1-52.72,21.74C2085,1253.08,1708.12,1021.3,1498.19,1119,1299.82,1211.23,1334.27,1367.75,1364.67,1441.39Z"/><path class="cls-7" d="M2301.27,1086.27c2.78-4.28,5.44-8.33,7.86-12.26,8.79-17.92,20-44.16,31-79.3,2.66-8.79,4.86-17.11,6.48-25.09-126.93,69.6-294.67,20.81-461.94-6.24C2113.54,1020.37,2179.78,1204.53,2301.27,1086.27ZM1682.46,950.55l-3.81.35Z"/><path class="cls-2" d="M2304.39,1081.53c1.62-2.66,3.24-5.09,4.74-7.52,8.79-17.92,20-44.16,31-79.3,12.95-41.62,12.49-73.75,9.6-94.1-98.38,99.19-343.34,65.08-470,62,0,0,4.16.93,11,2.31,224,58.73,290.16,238.61,410.61,121.39C2302.2,1084.76,2303.24,1083.14,2304.39,1081.53Zm-621.93-131-3.81.35Z"/><path class="cls-8" d="M2304.39,1081.53c1.62-2.66,3.24-5.09,4.74-7.52,8.79-17.92,20-44.16,31-79.3,12.95-41.62,12.49-73.75,9.6-94.1-52.71,111.21-124,169.24-204.5,197.33,54.68,32.83,99.42,43.47,156.06-11.67C2302.2,1084.76,2303.24,1083.14,2304.39,1081.53Z"/><path class="cls-4" d="M1242.83,1491.79c-.12-.46-9.25-128.2,176.75-119,98.73,5,176.87,88.67,256.29,173.86,134.79,144.51,273.05,292.71,533.62,158.38l.92-.58q4.15-2.25,8.67-4.85l.12-.12.81-.46h0l.46-.35h.11l.35-.23.23-.12c7.63-4.5,16.19-9.71,25.09-15.72,12.71-8.55,27.28-19.07,43.35-32h.11l.7-.58.11-.11.58-.35.23-.35.46-.23.35-.34.35-.24.57-.46.12-.11.69-.58.12-.12.23-.11.12-.12.11-.23.23-.12h.12v-.11l.23-.12.12-.11h0a293.35,293.35,0,0,0,25.08-23.12c38.15-51.91,31.44-56.42,58.84-114-202.65-9.47-227.85-37.33-395.58-163.11-19-14.22-36.53-27.4-54.8-40.34C1774.25,1163,1602,1048.23,1334.27,1200c-205.65,116.75-168.08,300.56-168,301Zm634.76-128.08c1.16,1.15,2.89,2.89,5.44,5.55h-.12c58,65.2,86.47,134.21,109.71,190.62,19.65,47.52,36.3,87.86,60.8,115.49-137.56,15.26-230.27-83.93-321-181.26-90.4-96.88-179.18-192-309-198.61-39.88-2-73.64.93-102.08,7.29a320.78,320.78,0,0,1,51.1-35.38C1593.45,1142,1742.92,1239.9,1877.59,1363.71Zm302.76,268.89-5.08,2.19c-61.39,9.48-81.5-32.48-107.63-95.71,42.54,33.87,86.59,62.3,134.22,80.22-7.52,5-14.11,9.13-19.54,12.37Z"/><path class="cls-21" d="M1204.22,1493.88h0s-12.14-171.21,217.33-159.65c282.53,14.1,376.28,539.63,770.25,336.51,17.45-9.71,44.39-26.35,77.68-53.4,7.17-5.9,13.53-11.68,19.31-17.34-313.28-26.94-478-625.75-935.45-366.23C1172,1336.66,1204.22,1493.88,1204.22,1493.88Z"/><path class="cls-22" d="M1209.88,1448.79c13.76-49.82,59.77-122.19,211.67-114.56,282.53,14.1,376.28,539.63,770.25,336.51,17.45-9.71,44.39-26.35,77.68-53.4,7.17-5.9,13.53-11.68,19.31-17.34a261.16,261.16,0,0,1-55.95-11.1c-319,102.19-504.26-299.52-733.15-334.55C1283.41,1221.29,1225.37,1370.64,1209.88,1448.79Z"/><path class="cls-7" d="M2186.37,1672c4.73-2.08,9.24-3.93,13.4-5.78,17.23-10.06,41-25.67,69.71-48.9,7.05-5.9,13.53-11.56,19.19-17.23-144.15-12.48-256.75-146-381-261.14C2066.6,1513.07,2019.78,1703.23,2186.37,1672Zm-440-455.82c-1.16-.58-2.2-1.27-3.35-1.85Z"/><path class="cls-2" d="M2191.68,1669.7c2.78-1.15,5.44-2.31,8.09-3.46,17.23-10.06,41-25.67,69.71-48.9,33.76-27.52,51.21-54.45,60.11-73.06-136.87,28.09-321.94-136-425.64-208.78,0,0,3,3,7.86,8.09,154,172.94,109.36,359.29,274.56,328.43Zm-445.29-453.5c-1.16-.58-2.2-1.27-3.35-1.85Z"/><path class="cls-8" d="M2191.68,1669.7c2.78-1.15,5.44-2.31,8.09-3.46,17.23-10.06,41-25.67,69.71-48.9,33.76-27.52,51.21-54.45,60.11-73.06-105.54,63.35-197.09,72.13-279.63,51,27.39,57.68,58.72,91.32,136.41,76.76Z"/><path class="cls-4" d="M1068,1549.13c-56.76,0-100.11-9.48-133.29-24.27,18.27,22.54,43,45.2,76.18,66.24,111.1,70.63,204.39,83.11,287,63.23a369.8,369.8,0,0,0,70.86-25.2,7,7,0,0,1,1.62-.81l.23-.12a12.35,12.35,0,0,1,1.28-.69c.8-.35.23-.12,0,0h0l1.73-.81h.12a7.38,7.38,0,0,1,1.38-.58c54.22-26.47,105.2-64.5,154.68-105.77a31,31,0,0,1,4.39-3.35c15.49-9.72,35.6-23.36,57.45-38,96-64.62,223.81-150.86,337-158.14q-4.86-5.55-10.75-11.44c-2.43-2.43-5-4.86-7.51-7.17h0l-.93-.81c-.58-.46-1-.93-1.62-1.39l-1.5-1.39h0c-.46-.34-.93-.8-1.5-1.15l-1.39-1.27.11-.12a9.1,9.1,0,0,1-1.61-1.27l-1.28-1h.12l-4.16-3.58h.11l-1.38-1-1.62-1.39h0c-.35-.35-.69-.58-1-.93l-1.27-.92.11-.12a4,4,0,0,1-1.15-.81l-1.16-.92.12-.12-1.85-1.38-1.85-1.62-1.85-1.39h0c-1-.81-2.08-1.73-3.24-2.54l.12-.12h-.12c-.58-.46-1.27-.92-1.85-1.39l-1.27-.92h0l-.12-.23h0c-1.15-.81-2.19-1.62-3.23-2.43-.81-.69-1.62-1.27-2.32-1.85l-2.31-1.62v-.11h0c-.46-.23-.81-.58-1.27-.81l-.69-.58h0c-1.16-.92-2.43-1.85-3.59-2.66l-2-1.39h0c-.46-.34-.81-.57-1.27-.92l-.47-.35v-.11a16.86,16.86,0,0,1-1.73-1.16l-1.62-1.16-1.15-.8h0l-.93-.58-2-1.39-.93-.58-.92-.58.11-.11-1.39-.81a11,11,0,0,0-2-1.27c-.46-.35-.93-.58-1.39-.93l-.11-.11h0l-.58-.35v-.11c-1.62-1,.35.34-3.7-2.2-3.12-2.08-2.54-1.74-2.31-1.62l-.35-.12c-208.77-121.38-335.47,1.51-458.94,121.27C1286.64,1459.77,1194.51,1549.13,1068,1549.13ZM1627,1138.86c69.36-11.09,148.2,2.78,242.19,57.34.69.35,1.27.81,2,1.16a28.38,28.38,0,0,1,2.78,1.73c1.5.93-.35-.23,4.27,2.78l.12.11v-.11l1,.69v-.12a15.91,15.91,0,0,0,2.31,1.62,12.7,12.7,0,0,0,1.27.93l1.39.92h0l.92.58c.35.23.81.58,1.16.81l1,.69c.35.35.81.58,1.16.93l1,.69h.11l1.27.93,1.74,1.27a4,4,0,0,1,1.15.81l.93.69v-.11l.58.46a16.23,16.23,0,0,1,1.5,1h0l2,1.39c.34.23.69.57,1,.81,1,.8,2.08,1.61,3.23,2.42v-.11l.81.58a12.06,12.06,0,0,0,1.16.92h0c.81.58,1.62,1.27,2.54,2s1.62,1.27,2.54,2c1.28,1,2.66,2.08,4,3.12h0l1.27,1c.7.46,1.27,1,1.85,1.5l.23.24v-.12l3.24,2.66V1233l2.31,2,1.27,1c.93.69,1.85,1.5,2.78,2.31v-.11l1.15.92c.47.46.93.81,1.28,1.16h.11l1.16,1c.46.34.81.69,1.27,1h0l1.62,1.38c.57.47,1,.93,1.5,1.39h.12c1.38,1.27,2.89,2.54,4.39,3.82l.11-.12,1.16,1.16a19.84,19.84,0,0,1,1.73,1.62v-.12l1.51,1.27c.57.46,1,1,1.61,1.5h0l1.51,1.28,1.73,1.73,1.16,1h.11c3.24,2.89,6.25,5.9,9.37,8.9a261.29,261.29,0,0,1,31,36.65,216.52,216.52,0,0,1,22.19,39.76,29.77,29.77,0,0,1-16.07,38.85,28.91,28.91,0,0,1-19.88,1c-100.22-24.86-247,74-352,144.84-20.23,13.53-38.85,26.13-57.69,38-53.41,44.5-108.78,85.54-168.89,114.44h0c-.58.23-1,.58-1.62.81l-.93.46a7.38,7.38,0,0,0-1.38.58,426.85,426.85,0,0,1-82.77,29.36c-97.57,23.47-206.12,9.83-332.7-70.63C784.82,1518,830,1342.44,830.13,1342a31.27,31.27,0,0,1,4.86-10.52c.46-9.25,1.39-18.62,2.77-28.21,13.87-99.19,77-215.25,120.81-292.7,27.86-49.25,42-104.39,46.81-160.69,4.63-52.48,1-105.89-6.82-156.64q-22.37-12.48-47.28-25.43c-20.69-10.87-44.39-22.66-71.21-35.61l-.11-.11a29.64,29.64,0,0,1-14.57-39.42l2.2-4.74c16.18-35.14,29.59-64.16,56.41-92.6-5.78-17.22-13.41-45.43-19.42-87.51-.23-2.19-.58-5.31-1-9.13-.35-3.47-.58-6.59-.69-9.25h0C898.34,312.2,930.59,219,930.71,218.68h0a29.75,29.75,0,0,1,29.59-20c.12,0,26.47,1.27,90.4,34.8,46.82,24.62,103.23,72.25,128,94a120.06,120.06,0,0,1,15.14-2.43,164.84,164.84,0,0,1,27.17-.23,166.12,166.12,0,0,1,27.28.23,118,118,0,0,1,15,2.43c24.74-21.73,81.15-69.36,128.09-94,46.24-24.28,72.83-31.68,83.92-33.87a30,30,0,0,1,36.07,19.07c.12.35,37.57,108.66,26,189.12-6,42.08-13.64,70.29-19.3,87.51,26.7,28.44,40.11,57.46,56.41,92.6l2.19,4.74h-.11a29.67,29.67,0,0,1-14.34,39.3q-33.29,15.62-64,31.1c-13.87,7.05-26.82,13.76-38.72,20.11,3.81,154.68,58.72,240,106,313.4,25.43,39.54,48.9,75.83,63.12,118.61a32.54,32.54,0,0,1,1.5,6.82A28.9,28.9,0,0,1,1627,1138.86ZM1398.43,1680.8Zm17-1041.33c17.69-9.71,36.42-19.54,55.95-29.48q18-9,38.84-19.07c-12.25-25.21-24.85-46.48-46.81-66.13a29.68,29.68,0,0,1-6.36-36.18h0s11.79-21.16,21.5-89.13c6.24-44.28-6.36-101.5-15.38-134.56-10.05,4.16-24.39,10.75-44.39,21.16-54.33,28.55-127.62,96.29-127.85,96.52a29.67,29.67,0,0,1-32.72,5.09,61.06,61.06,0,0,0-15.37-3.59,111.55,111.55,0,0,0-19.08,0,25.17,25.17,0,0,1-6,0,103.81,103.81,0,0,0-18.61,0,65.82,65.82,0,0,0-16.41,3.94,29.39,29.39,0,0,1-31.56-5.44H1151c-.11-.23-73.52-68-127.85-96.52-19.89-10.41-34.22-17-44.28-21.16-8.09,29.59-19.07,78.61-16.76,120.69l.12,1.27c.11,2.43.23,4.51.46,6.13s.34,3.58.81,6.47c9.71,68,21.5,89.13,21.5,89.13a29.82,29.82,0,0,1-7.75,37.45c-21.15,19.31-33.64,40.35-45.66,65.2q24.29,12,47.17,23.93c23.12,12,43.46,23.12,61.5,33.41a29,29,0,0,1,14.56,20.81h.12c10.29,59.42,15.26,122.88,9.71,185.65-5.55,63.7-21.85,126.93-54.45,184.62-41.39,73.17-101.15,182.76-113.64,271.66-10.4,75.26,19,135.37,143.58,135.37a186,186,0,0,0,38.26-3.93,205.71,205.71,0,0,0,36.65-11.33,29.55,29.55,0,0,1,6.7-1.85c79-17.69,198.72-145.19,267.85-218.72,17.69-18.84,32.14-34.21,43.82-45.2a31.92,31.92,0,0,1,3-2.54h0c23.93-17.34,48.9-32.37,75.26-43.93a299.86,299.86,0,0,1,47.51-16.53c-11.79-24.39-27.28-48.44-43.81-74-53.3-82.77-115.6-179.65-115.49-363.22A29.62,29.62,0,0,1,1415.42,639.47Zm-43.46,988c-.24.12-.35.23,0,0Z"/><path class="cls-23" d="M932.56,387.8s195.71,382.53,51.79,637.31c-85.09,150.63-245.89,451.43,55.83,451.43,94.79,0,170.63-61.85,244.73-133.76l-.12-2.77c9.48-8.9,19.08-17.92,28.67-26.7v1.27c86.24-86,172.94-176.52,287.15-189.36-46.12-140-212.47-223.92-161.37-588.52Z"/><path class="cls-24" d="M871.87,1390.53c13.87,41.85,49,72.48,116.64,82.42l.92.12c3.24.57,6.59.92,10.06,1.27l2.77.35h.7c7.74-110.52-11.22-214.44-19.54-324.5C934.17,1154.12,871.75,1313.77,871.87,1390.53Z"/><path class="cls-25" d="M1013.36,611.49c3.58,17.34,67.05-2,67.51,22.54l19.19,83.82.81,3.58s83.12,43,31.56,351.08c-12.72,76.3-19.77,138.61-22.77,189h0s-1.27,15.83-1.62,40.11c-.35,18.61,0,35.26.92,49.94v.35c2.55,50.4,17.23,107.16,17.23,107.16a375.47,375.47,0,0,0,45-19,165.24,165.24,0,0,0,30.28-16.53h.12c39.54-23.93,111.9-110.28,111.9-110.28v1.27c45.32-45.2,90.86-91.56,140.34-127.39-48.78-109-264.26-434.9-.35-535.82-3.69-16.3.47-30.28-2.89-47.85-16,2.77-34.33,6.82-55.14,12.6-116.64,32.25-165,70.63-165,70.63s-18.61-22.31-100.46-53.29C1096.94,621,1053.47,614.61,1013.36,611.49Z"/><path class="cls-26" d="M1126.19,1459.08c110.28-22.89,277.9-224.84,327.61-271.89-43.35-97.11-219-366-70.75-495.12h0c-47.51,0-57.57,87.39-149.12,314.55S1111.16,1400,1126.19,1459.08Z"/><path class="cls-27" d="M859,1348.91h0s-20.69,170.4,209,170.4c283,0,402.87-520.09,786.2-297.44,17,10.52,43,28.55,74.91,57.22a250.06,250.06,0,0,1,18.38,18.26c-314.2,11.22-508.76,601-952.55,319C818.92,1504.39,859,1348.91,859,1348.91Z"/><path class="cls-28" d="M862.39,1394.23c11.32,50.51,53.63,125.08,205.65,125.08,283,0,402.87-520.09,786.2-297.44,17,10.52,43,28.55,74.91,57.22a250.06,250.06,0,0,1,18.38,18.26,271.82,271.82,0,0,0-56.41,8.21c-313.39-118-518.7,274-749,297.44C924.46,1625.2,874.06,1473.07,862.39,1394.23Z"/><path class="cls-7" d="M1848.93,1220.36c4.62,2.2,8.9,4.28,13.06,6.36a571.1,571.1,0,0,1,67.16,52.37c6.82,6.13,12.83,12.25,18.38,18.15-144.61,5.2-263.91,132.82-393.73,241.72C1721.3,1373,1684,1180.83,1848.93,1220.36Zm-462.29,433-3.47,1.74Z"/><path class="cls-2" d="M1854,1222.79c2.78,1.39,5.44,2.66,8,3.93,16.76,11,39.77,27.75,67.16,52.37,32.37,29.13,48.44,57,56.3,76-135.14-34.91-328.19,119.65-435.47,187.16l8.21-7.63c162.42-165,127.28-353.4,290.74-314.21C1850.54,1221.06,1852.28,1221.87,1854,1222.79ZM1386.64,1653.4l-3.47,1.74Z"/><path class="cls-8" d="M1854,1222.79c2.78,1.39,5.44,2.66,8,3.93,16.76,11,39.77,27.75,67.16,52.37,32.37,29.13,48.44,57,56.3,76-102.19-68.55-193.17-82-276.63-65,30.28-56.18,63.23-88.2,140.11-69.71C1850.54,1221.06,1852.28,1221.87,1854,1222.79Z"/><path class="cls-29" d="M892.33,605c64,29.25,137.79,34.22,193.74,76.06,76.19,57.23,130.29,50.87,130.29,50.87l13.29,30,4.74,43.12s44.16-62.54,120.34-119.64c56-42,130.86-51.21,194.9-80.46-18.61-40.35-32.48-71.91-66.47-102.31,0,0,14.34-25.66,24.74-99.07s-24.74-175.25-24.74-175.25-20,.93-78.14,31.44S1270.8,360.75,1270.8,360.75a101.59,101.59,0,0,0-25.31-6.24,145.36,145.36,0,0,0-24.51,0,145.31,145.31,0,0,0-24.51,0,101.75,101.75,0,0,0-25.2,6.24s-76.18-70.51-134.33-100.92-78.14-31.44-78.14-31.44-35.26,102-24.74,175.25,24.74,99.07,24.74,99.07C924.81,533.11,911.05,564.67,892.33,605Z"/><path class="cls-30" d="M892.33,605c613.14,279.29,44.27,279.29,657.3,0-18.61-40.35-32.48-71.91-66.47-102.31,0,0,14.34-25.66,24.74-99.07s-24.74-175.25-24.74-175.25-20,.93-78.14,31.44S1270.8,360.75,1270.8,360.75a101.59,101.59,0,0,0-25.31-6.24,145.36,145.36,0,0,0-24.51,0,145.31,145.31,0,0,0-24.51,0,101.75,101.75,0,0,0-25.2,6.24s-76.18-70.51-134.33-100.92-78.14-31.44-78.14-31.44-35.26,102-24.74,175.25,24.74,99.07,24.74,99.07C924.81,533.11,911.05,564.67,892.33,605Z"/><path class="cls-31" d="M1171.27,360.75s-76.18-70.51-134.33-100.92-78.14-31.44-78.14-31.44,53.64,32.37,94,110.51,38.61,100.46,38.61,100.46Z"/><path class="cls-32" d="M1179.25,653.11s17.8-93.64-24.39-170.51c-53.53-97.57-146.59-25.09-197.8,21.73L1007.7,660Z"/><path class="cls-32" d="M1256.59,652s-17.69-93.63,24.5-170.51c53.41-97.45,149.24-23.12,202.07,21.27l-55,156.29Z"/><path class="cls-33" d="M892.33,605c589.1,284.26,72.71,273.63,657.3,0,0,0-79.64-28.9-196.17,3.35S1217.63,697,1217.63,697s-14.57-18.73-44.28-40.35a328.92,328.92,0,0,0-77.22-41.5C1014.17,584.21,892.33,605,892.33,605Z"/><path class="cls-34" d="M1218.32,678.31c108.09-4.62,6.71,59.42,0,63.35C1211.5,737.73,1110.12,673.69,1218.32,678.31Z"/><path class="cls-34" d="M1042.72,508.49c20.58,41.62,63.12,46.82,102.31,35.14C1127.57,510.57,1088.15,507.1,1042.72,508.49Z"/><path class="cls-31" d="M1270.8,360.75S1347,290.24,1405,259.83s78.14-31.44,78.14-31.44-53.64,32.37-93.86,110.51-38.62,100.46-38.62,100.46Z"/><path class="cls-34" d="M1392.53,508.49c-20.69,41.5-63.23,46.82-102.3,35.14C1307.57,510.57,1347.1,507,1392.53,508.49Z"/><path class="cls-35" d="M1013.36,611.49c3.58,17.34,67.05-2,67.51,22.54l19.19,83.82.81,3.58s83.12,43,31.56,351.08c-12.72,76.3-19.77,138.61-22.77,189h0s-1.27,15.83-1.62,40.11c-.35,18.61,0,35.26.92,49.94v.35c2.55,50.4,17.23,107.16,17.23,107.16a375.47,375.47,0,0,0,45-19,165.24,165.24,0,0,0,30.28-16.53h.12c39.54-23.93,111.9-110.28,111.9-110.28v1.27c45.32-45.2,90.86-91.56,140.34-127.39-48.78-109-264.26-434.9-.35-535.82-3.69-16.3.47-30.28-2.89-47.85-16,2.77-34.33,6.82-55.14,12.6-116.64,32.25-165,70.63-165,70.63s-18.61-22.31-100.46-53.29C1096.94,621,1053.47,614.61,1013.36,611.49Z"/><path class="cls-36" d="M1126.19,1459.08c110.28-22.89,277.9-224.84,327.61-271.89-43.35-97.11-219-366-70.75-495.12h0c-47.51,0-57.57,87.39-149.12,314.55S1111.16,1400,1126.19,1459.08Z"/><path class="cls-29" d="M892.33,605c64,29.25,137.79,34.22,193.74,76.06,76.19,57.23,130.29,50.87,130.29,50.87l13.29,30,4.74,43.12s44.16-62.54,120.34-119.64c56-42,130.86-51.21,194.9-80.46-18.61-40.35-32.48-71.91-66.47-102.31,0,0,14.34-25.66,24.74-99.07s-24.74-175.25-24.74-175.25-20,.93-78.14,31.44S1270.8,360.75,1270.8,360.75a101.59,101.59,0,0,0-25.31-6.24,145.36,145.36,0,0,0-24.51,0,145.31,145.31,0,0,0-24.51,0,101.75,101.75,0,0,0-25.2,6.24s-76.18-70.51-134.33-100.92-78.14-31.44-78.14-31.44-35.26,102-24.74,175.25,24.74,99.07,24.74,99.07C924.81,533.11,911.05,564.67,892.33,605Z"/><path class="cls-37" d="M892.33,605c613.14,279.29,44.27,279.29,657.3,0-18.61-40.35-32.48-71.91-66.47-102.31,0,0,14.34-25.66,24.74-99.07s-24.74-175.25-24.74-175.25-20,.93-78.14,31.44S1270.8,360.75,1270.8,360.75a101.59,101.59,0,0,0-25.31-6.24,145.36,145.36,0,0,0-24.51,0,145.31,145.31,0,0,0-24.51,0,101.75,101.75,0,0,0-25.2,6.24s-76.18-70.51-134.33-100.92-78.14-31.44-78.14-31.44-35.26,102-24.74,175.25,24.74,99.07,24.74,99.07C924.81,533.11,911.05,564.67,892.33,605Z"/><path class="cls-38" d="M1037.17,259.49c58.15,30.52,134.1,100.8,134.33,100.92l.35.34-80.23,78.84-.69-.34s1.73-22.2-38.5-100.23S958.8,228.74,958.68,228.74l.23-.81S978.91,229,1037.17,259.49Z"/><path class="cls-4" d="M1125.49,701.66c53.41,35.84,80.46,61.15,96.07,76.18,10.06-10.52,25.43-25.78,50.75-45.66l199.18-88.78s40.57-23.93,78.14-38.38a111.86,111.86,0,0,1,10.87-3.24l1.39,29.48c-216.64,101.38-277.44,164.62-301.72,189.93-14.1,14.68-21.27,22.08-37.92,22.08-16.18,0-23.7-7.16-38.84-21.73-26.36-25.43-91.09-87.86-303.68-190.4l3.93-27.28s22.42,2.89,54.56,20.58C956.14,634.27,1047.81,671,1125.49,701.66ZM1232,743.16l-4.39,12.49-16.42-20.58ZM1221.44,784h0l1.27,1.27C1226.3,785.24,1224,784.78,1221.44,784Zm0,0c-1.62.81-2.66,1.27.81,1.27h.46Z"/><path class="cls-39" d="M892.33,605c589.1,284.26,72.71,273.63,657.3,0,0,0-79.64-28.9-196.17,3.35S1217.63,697,1217.63,697s-14.57-18.73-44.28-40.35a328.92,328.92,0,0,0-77.22-41.5C1014.17,584.21,892.33,605,892.33,605Z"/><path class="cls-4" d="M1218.32,678.31c108.09-4.62,6.71,59.42,0,63.35C1211.5,737.73,1110.12,673.69,1218.32,678.31Z"/><path class="cls-40" d="M1270.8,360.75S1347,290.24,1405,259.83s78.14-31.44,78.14-31.44-53.64,32.37-93.86,110.51-38.62,100.46-38.62,100.46Z"/><path class="cls-41" d="M1075.21,501.56l-63.93-23,23.58,22.54s3.47,30.18,36.88,45.9S1118,565.37,1118,565.37A296.23,296.23,0,0,1,1143.3,609c11.56,24.85,18.26,36.76,18.26,36.76s-.92-35.37-9.94-68-30.52-56.3-33.76-59.19S1075.21,501.56,1075.21,501.56Z"/><path class="cls-4" d="M1047.35,498.67c18.61,28.43,47.63,40.22,76.87,41.38a91.59,91.59,0,0,1,8.21,11.45c13.18,21.61,25.2,66.7,25.2,66.7s-1.15-51.56-15.6-78.84a71.67,71.67,0,0,0-14.92-20.93c-9.94-10.4-18.38-13.64-18.38-13.64h0c-11-6-23.47-10.4-37-13.75h0c-8.09-2.08-16.53-3.7-25.2-5.21l-35.26-7.28Z"/><path class="cls-42" d="M1350.34,500.17l63.93-24.05L1390.68,499s-3.47,30.17-36.87,46.47-46.24,19.19-46.24,19.19a296.75,296.75,0,0,0-25.32,43.93c-11.56,25.09-18.27,37.11-18.27,37.11s.93-35.37,10-68.2,30.51-56.76,33.75-59.65S1350.34,500.17,1350.34,500.17Z"/><path class="cls-4" d="M1378.2,496.82c-18.61,28.78-47.63,41-76.88,42.54a92,92,0,0,0-8.09,11.67c-13.29,21.85-25.32,67.17-25.32,67.17s1.16-51.56,15.61-79.19a74,74,0,0,1,14.91-21.15c9.94-10.52,18.38-13.88,18.38-13.88h0c11-6.24,23.47-10.75,37-14.45h0c8.09-2.08,16.53-3.93,25.2-5.55l35.26-7.86Z"/><polygon class="cls-1" points="2199.52 2017.41 200.48 2017.41 337.55 1636.13 2062.45 1636.13 2199.52 2017.41"/><text class="cls-43" transform="translate(409.79 1966.97)">eFox</text></svg>